<?xml version="1.0" standalone="no"?>
<!DOCTYPE svg PUBLIC "-//W3C//DTD SVG 20010904//EN"
 "http://www.w3.org/TR/2001/REC-SVG-20010904/DTD/svg10.dtd">
<svg version="1.0" xmlns="http://www.w3.org/2000/svg"
 width="296.000000pt" height="274.000000pt" viewBox="0 0 296.000000 274.000000"
 preserveAspectRatio="xMidYMid meet">

<g transform="translate(0.000000,274.000000) scale(0.100000,-0.100000)"
fill="#000000" stroke="none">
<path d="M318 2681 c-73 -29 -123 -74 -157 -143 -27 -52 -31 -72 -31 -138 0
-66 4 -86 31 -138 51 -103 129 -153 249 -160 106 -6 172 20 239 94 78 85 100
187 65 304 -21 71 -107 159 -178 183 -64 22 -159 21 -218 -2z"/>
<path d="M1155 2381 c-65 -29 -100 -74 -134 -169 -39 -109 -94 -194 -172 -266
-74 -69 -140 -108 -240 -141 -81 -27 -147 -82 -168 -138 -7 -19 -11 -207 -11
-547 0 -494 1 -522 20 -572 41 -110 157 -188 278 -188 116 0 216 61 270 164
l27 51 5 390 c6 427 6 421 72 547 59 112 187 217 317 260 64 22 84 22 621 28
539 5 556 6 601 26 121 56 191 193 167 326 -13 73 -39 118 -98 171 -89 80 -55
77 -829 77 -643 0 -689 -2 -726 -19z"/>
<path d="M1496 1514 c-66 -21 -156 -110 -179 -178 -40 -118 -11 -241 76 -323
84 -79 111 -85 399 -81 230 3 245 4 285 26 150 79 209 264 133 413 -29 55
-114 126 -173 144 -72 21 -470 20 -541 -1z"/>
<path d="M1495 642 c-68 -22 -155 -109 -178 -176 -40 -118 -11 -241 76 -323
88 -84 94 -84 533 -81 366 3 380 4 419 24 138 75 199 231 148 380 -24 71 -112
157 -183 178 -80 24 -742 22 -815 -2z"/>
</g>
</svg>
